# xmcd CD database file
#
# Track frame offsets:
#	150
#	22105
#	43192
#	67437
#	87735
#	106480
#	125450
#	147882
#	170352
#	189460
#	208690
#	229937
#	249120
#	270465
#	291722
#	311025
#
# Disc length: 4395 seconds
#
# Revision: 0
# Processed by: cddbd v1.5.1PL0 Copyright (c) Steve Scherf et al.
# Submitted via: CDex 1.51
#
DISCID=fe112910
DTITLE=藤あや子 - 藤あや子 ヒット全曲集'96
DYEAR=1995
DGENRE=Blues
TTITLE0=み・れ・ん
TTITLE1=おばこ巡礼歌
TTITLE2=霧笛
TTITLE3=恋千鳥
TTITLE4=愛終歌
TTITLE5=花のワルツ
TTITLE6=港恋うれば
TTITLE7=むらさき雨情
TTITLE8=こころ酒
TTITLE9=さしむかい
TTITLE10=女泣川
TTITLE11=命恋
TTITLE12=母恋歌
TTITLE13=紙の舟
TTITLE14=雨のものがたり
TTITLE15=雨夜酒
EXTD=YEAR: 1995
EXTT0=
EXTT1=
EXTT2=
EXTT3=
EXTT4=
EXTT5=
EXTT6=
EXTT7=
EXTT8=
EXTT9=
EXTT10=
EXTT11=
EXTT12=
EXTT13=
EXTT14=
EXTT15=
PLAYORDER=
